<svg width="273" height="373" viewBox="0 0 273 373" fill="none" xmlns="http://www.w3.org/2000/svg">
<path d="M146.555 138.847C146.555 138.847 157.448 131.306 158.185 122.865C158.921 114.423 161.276 107.363 170.7 106.135C180.124 104.908 166.43 112.203 165.841 120.911C165.251 129.618 155.39 141.937 146.555 138.847ZM82.9101 114.267C82.9101 114.267 82.6823 125.765 90.5486 127.778C98.416 129.792 89.3577 139.175 93.9629 142.965C98.5682 146.756 87.6821 150.465 84.8352 141.168C81.9883 131.872 88.5905 128.964 77.6898 126.576C66.7892 124.189 73.238 108.345 82.9101 114.267Z" fill="#F9F5ED"/>
<path d="M93.2774 185.622C38.4136 173.025 4.14556 131.469 0.868568 153.165C-6.55848 187.805 36.0498 227.392 37.3776 241.185C37.543 255.264 32.2706 269.95 36.6237 279.286C41.9739 290.732 62.9527 292.971 83.1193 294.709C113.506 297.242 145.01 300.262 179.096 295.449C212.713 290.712 250.154 276.239 267.592 248.294C274.654 237.525 275.707 220.317 265.255 210.996C259.048 205.291 252.464 205.342 246.786 205.818C229.628 207.422 208.185 230.971 191.355 213.983C184.389 206.177 199.081 190.945 190.076 187.539C166.877 177.562 151.892 199.188 93.2774 185.622Z" fill="#F9F5ED"/>
<path d="M140.589 372.457H104.204C104.204 372.457 103.511 366.37 104.345 361.167C104.447 360.533 104.766 359.966 105.245 359.463C107.374 360.205 110.504 360.731 113.986 359.444C116.841 358.392 118.952 356.789 120.421 355.327C120.799 355.7 128.314 363.069 131.789 363.069C135.264 363.069 140.796 364.834 140.589 372.457Z" fill="#2C3A64"/>
<path d="M190.784 372.457H154.398C154.398 372.457 153.702 366.37 154.54 361.167C154.642 360.533 154.961 359.966 155.44 359.463C157.569 360.205 160.699 360.731 164.181 359.444C167.036 358.392 169.147 356.789 170.616 355.327C170.993 355.7 178.509 363.069 181.984 363.069C185.459 363.069 190.991 364.834 190.784 372.457Z" fill="#4F7190"/>
<path d="M141.442 372.457H105.056C105.056 372.457 104.363 366.37 105.198 361.167C105.299 360.533 105.618 359.966 106.097 359.463C108.226 360.205 111.357 360.731 114.839 359.444C117.694 358.392 119.805 356.789 121.274 355.327C121.651 355.7 129.167 363.069 132.642 363.069C136.117 363.069 141.648 364.834 141.442 372.457Z" fill="#4F7190"/>
<path d="M90.837 150.034C90.837 150.034 67.5424 190.396 65.0505 200.649C62.5585 210.902 79.1934 208.34 83.8762 200.649C88.5554 192.959 108.858 169.984 108.858 169.984L90.8407 150.037L90.837 150.034Z" fill="#F4CABA"/>
<path d="M149.418 160.913C143.375 152.204 154.743 141.952 162.404 149.195C172.053 158.317 184.842 170.778 186.134 173.907C188.23 178.995 174.116 189.289 154.126 166.829C152.237 164.706 150.684 162.741 149.418 160.913Z" fill="#F4CABA"/>
<path d="M144.452 329.64C141.097 314.994 137.288 296.554 134.546 278.096C134.401 277.126 134.256 276.064 134.125 274.922C136.331 261.846 139.809 251.388 143.923 250.109C143.923 250.109 158.414 313.278 144.452 329.64Z" fill="#2C3A64"/>
<path d="M174.907 357.162C174.907 357.162 160.42 364.323 151.874 359.496C151.874 359.496 148.497 347.33 144.452 329.636C141.097 314.99 137.288 296.55 134.546 278.092C134.401 277.123 134.256 276.06 134.125 274.918C131.916 256.311 131.982 217.228 168.726 227.578L174.907 357.158V357.162Z" fill="#2F2828"/>
<path d="M102.742 227.178C101.153 227.406 107.149 298.729 103.935 312.114C100.721 325.5 103.924 361.674 103.924 361.674C103.924 361.674 116.25 365.322 129.584 360.127C129.584 360.127 133.734 316.721 137.259 304.286C144.855 277.507 148.783 229.383 148.783 229.383L102.742 227.178Z" fill="#2F2828"/>
<path d="M138.115 139.695L120.055 151.809L114.824 138.606C114.824 138.606 116.772 133.627 117.077 125.787C117.204 122.49 117.041 118.686 116.315 114.531L132.718 121.028C132.718 121.028 132.5 122.546 132.475 124.758C132.453 127.145 132.664 130.337 133.625 133.288C134.455 135.82 135.837 138.173 138.112 139.695H138.115Z" fill="#F4CABA"/>
<path d="M170.924 222.889L159.622 174.444C168.679 170.047 171.907 156.158 171.907 156.158L154.018 141.91C152.135 140.407 149.969 139.326 147.655 138.74C144.982 138.061 140.644 137.327 135.424 137.017C135.801 139.833 135.308 142.5 130.556 143.671C124.234 145.23 118.042 141.355 114.824 138.617C108.687 140.213 102.183 142.828 95.2841 146.897C95.2841 146.897 94.2032 147.404 92.502 148.605C91.918 148.978 90.7826 149.907 90.7826 149.907C86.8796 153.055 81.2138 158.966 76.9807 168.977C76.9807 168.977 79.3602 181.889 98.6503 185.227L98.7083 185.495L99.2343 187.853L102.147 200.921L99.5571 237.551C99.5317 237.868 99.5353 238.192 99.568 238.498C99.8183 240.896 101.636 242.888 104.044 243.216C104.044 243.216 104.595 243.25 105.604 243.283C107.983 243.369 113.914 243.522 121.51 243.332C128.804 243.149 137.626 242.645 146.299 241.459C154.344 240.359 162.259 238.67 168.705 236.096C173.34 234.239 171.842 227.936 170.924 222.897V222.889Z" fill="#4F7191"/>
<path d="M133.625 133.288C124.752 134.007 117.073 125.787 117.073 125.787L132.471 124.758C132.45 127.145 132.66 130.337 133.621 133.288H133.625Z" fill="#F8C8B6"/>
<path d="M136.171 122.52C136.171 122.52 120.969 133.09 110.533 121.472C99.2705 108.933 102.448 95.7073 107.889 92.9324C118.738 87.405 126.842 89.4825 130.433 93.4658C134.024 97.4491 144.59 116.769 136.171 122.516V122.52Z" fill="#F4CABA"/>
<path d="M146.302 241.452C137.626 242.638 128.804 243.141 121.513 243.324C113.918 243.514 107.987 243.361 105.607 243.276C104.599 243.242 104.048 243.209 104.048 243.209C101.639 242.884 99.8219 240.892 99.5716 238.491C99.539 238.185 99.5353 237.86 99.5607 237.543L102.151 200.914L99.2379 187.845L98.7119 185.488C98.7518 185.313 98.7736 185.219 98.7736 185.219C98.7736 185.219 141.395 219.708 146.306 241.452H146.302Z" fill="#4F7190"/>
<path d="M115.155 125.187C115.155 125.187 111.172 119.965 110.334 116.717C110.334 116.717 104.015 112.558 106.079 110.223C108.143 107.888 110.671 110.786 111.027 109.91C111.382 109.033 108.466 97.4453 111.68 96.6881C114.893 95.931 127.574 95.4648 131.078 89.2101C134.582 82.9592 116.5 69.9575 98.1606 84.0855C79.8209 98.2136 92.0522 120.278 115.155 125.183V125.187Z" fill="black"/>
<path d="M91.1272 96.9939C91.1272 96.9939 89.2192 94.4652 89.5239 92.0596C89.5239 92.0596 90.5323 94.8606 92.034 95.7296C93.5357 96.5986 91.1236 96.9977 91.1236 96.9977L91.1272 96.9939Z" fill="black"/>
<path d="M90.8769 94.8381C90.8769 94.8381 88.2254 95.4573 87.7067 97.9077C87.7067 97.9077 89.0778 96.013 91.3449 96.6843L90.8769 94.8381Z" fill="black"/>
<path d="M173.979 180.136C173.979 180.136 192.587 186.655 216.331 180.565L217.873 173.773C217.873 173.773 190.925 169.779 180.954 168.954C170.983 168.13 173.979 180.14 173.979 180.14V180.136Z" fill="#F4CABA"/>
<path d="M140.687 180.968C139.244 181.676 137.898 182.508 136.646 183.437V183.429C126.787 190.109 116.41 191.985 111.056 192.511C106.376 192.489 101.607 193.526 97.0869 195.748C81.3226 203.495 74.5359 222.669 81.932 238.58C89.3245 254.491 108.099 261.107 123.864 253.361C129.308 250.687 133.679 246.647 136.77 241.851C142.65 234.351 150.539 231.3 154.866 230.129C155.911 229.976 156.952 229.752 157.986 229.461L158.033 229.454V229.446C159.517 229.028 160.993 228.476 162.437 227.764C175.241 221.472 180.754 205.893 174.748 192.97C168.741 180.047 153.492 174.668 140.684 180.96L140.687 180.968Z" fill="#F99746"/>
<path d="M226.948 171.531L141.561 213.483C139.584 214.456 137.19 213.587 136.247 211.551C135.301 209.518 136.146 207.057 138.126 206.087L223.513 164.136C225.49 163.162 227.884 164.031 228.827 166.067C229.774 168.1 228.929 170.562 226.948 171.531Z" fill="#ED7D2B"/>
<path d="M109.677 234.537L109.55 234.6C108.538 235.097 107.32 234.653 106.837 233.616L101.081 221.23C100.598 220.189 101.03 218.936 102.038 218.44L102.165 218.376C103.177 217.88 104.396 218.324 104.878 219.361L110.635 231.747C111.117 232.788 110.686 234.041 109.677 234.541V234.537Z" fill="#ED7D2B"/>
<path d="M111.6 223.665C109.739 219.659 111.618 214.747 115.797 212.696C119.975 210.645 124.872 212.226 126.733 216.232C128.594 220.238 126.715 225.15 122.536 227.201C118.358 229.252 113.461 227.671 111.6 223.665Z" fill="#ED7D2B"/>
<path d="M218.134 162.566L221.682 160.823C223.8 159.782 226.336 160.706 227.346 162.88L228.678 165.748C229.69 167.925 228.791 170.532 226.677 171.571L223.133 173.313C221.015 174.353 218.476 173.431 217.464 171.253L216.133 168.389C215.121 166.212 216.02 163.605 218.134 162.566Z" fill="#ED7D2B"/>
<path d="M112.594 221.405C112.147 220.465 115.84 221.069 116.333 219.812C116.827 218.555 104.969 219.283 104.969 219.283L82.8569 197.475C82.8569 197.475 70.5023 199.445 65.8774 205.662C65.8774 205.662 94.7835 223.598 102.949 224.571C102.949 224.571 106.989 226.556 110.015 227.652C113.043 228.752 119.362 229.759 119.707 227.179C120.051 224.598 113.043 222.341 112.597 221.405H112.594Z" fill="#F4CABA"/>
<path d="M216.048 181.594C216.048 181.594 227.801 168.242 221.391 165.311C221.391 165.311 218.783 167.302 216.494 170.804C214.206 174.307 213.379 169.98 212.755 171.535C212.131 173.091 212.044 181.673 216.048 181.594Z" fill="#F4CABA"/>
<path d="M44.4725 106.231C44.4725 106.231 33.715 107.076 35.1941 112.816C36.6732 118.556 44.5927 114.996 46.9465 112.95C49.3003 110.907 47.6477 105.802 47.6477 105.802L46.0584 106.019L44.4692 106.235L44.4725 106.231Z" fill="#F99746"/>
<path d="M42.0486 75.8562L41.0803 76.1789L44.4725 106.231L47.6477 105.802L43.2505 82.2759C44.8264 83.9821 47.5942 85.0566 52.9429 84.3323C53.5573 84.2499 54.1983 84.1297 54.8594 83.9752C45.3272 86.2238 42.1521 76.1583 42.0486 75.8528V75.8562Z" fill="#F99746"/>
<path d="M224.003 23.7488C224.496 23.9851 233.015 24.4171 240.857 16L252.844 36.2192C252.844 36.2192 254.497 43.4551 247.029 44.5013C242.874 45.0818 242.462 41.6461 244.159 38.9968C245.513 36.8841 248.716 35.4869 248.716 35.4869L241.724 23.6948C241.724 23.6948 236.334 29.5065 229.893 29.439L236.334 42.0781C236.334 42.0781 239.204 48.8921 232.447 50.7449C225.694 52.5944 227.836 43.7993 233.382 43.2424L224 23.7488H224.003Z" fill="#F99746"/>
<path d="M133.986 43.6884C133.986 43.6884 118.098 40.5653 118.001 49.2307C117.903 57.8961 130.743 56.0581 134.945 54.129C139.147 52.1998 138.745 44.3576 138.745 44.3576L136.366 44.0245L133.986 43.6915V43.6884Z" fill="#F99746"/>
<path d="M142.319 0.00314192L140.791 0.0691223L133.986 43.6884L138.748 44.3576L141.555 9.51374C143.17 12.5457 146.753 15.1629 154.771 16.2877C155.695 16.4165 156.664 16.5077 157.682 16.5516C143.019 15.895 142.347 0.468146 142.319 0V0.00314192Z" fill="#F99746"/>
<path d="M190.617 54.0439L189.794 54L183.884 76.9015C183.884 76.9015 175.525 74.4181 175.026 79.0335C174.526 83.6489 181.507 83.328 183.86 82.517C186.214 81.7061 186.404 77.5029 186.404 77.5029L189.716 59.0716C190.427 60.7711 192.212 62.349 196.453 63.3626C196.942 63.4809 197.456 63.5755 198 63.6532C190.172 62.5484 190.611 54.2906 190.617 54.0372V54.0439Z" fill="#CAD9EF"/>
<path d="M235.893 275.681C234.784 276.887 233.489 276.878 232.347 276.868C231.245 276.858 230.294 276.85 229.439 277.78C228.586 278.709 228.706 279.623 228.844 280.679C228.987 281.776 229.15 283.019 228.042 284.225C226.933 285.431 225.637 285.42 224.495 285.41C223.394 285.4 222.442 285.393 221.589 286.321C220.735 287.251 220.856 288.163 220.994 289.221C221.138 290.317 221.3 291.56 220.191 292.766C219.082 293.973 217.787 293.962 216.645 293.952C215.544 293.942 214.592 293.934 213.739 294.863C213.584 295.032 213.316 295.047 213.142 294.896C212.967 294.746 212.952 294.487 213.108 294.319C214.216 293.113 215.512 293.124 216.654 293.134C217.755 293.143 218.707 293.151 219.56 292.223C220.414 291.294 220.293 290.381 220.156 289.323C220.011 288.227 219.849 286.984 220.958 285.777C222.067 284.571 223.362 284.582 224.504 284.592C225.605 284.602 226.557 284.609 227.41 283.681C228.264 282.752 228.145 281.839 228.006 280.782C227.863 279.686 227.699 278.442 228.808 277.236C229.917 276.028 231.212 276.04 232.354 276.05C233.456 276.059 234.407 276.067 235.261 275.137C235.417 274.968 235.684 274.953 235.857 275.104C236.032 275.254 236.049 275.512 235.893 275.681Z" fill="#F5B501"/>
</svg>
